<?xml version="1.0" encoding="UTF-8"?>
<svg id="Layer_4" xmlns="http://www.w3.org/2000/svg" version="1.1" viewBox="0 0 300 300">
  <!-- Generator: Adobe Illustrator 29.1.0, SVG Export Plug-In . SVG Version: 2.1.0 Build 142)  -->
  <path d="M178.2,83.61l-13.08-4.02c1.72-12.32-9.25-40.55-23.68-23.85-10.23,11.85-4.72,38.78-1.17,52.81,3.41,13.45,10.05,13.98,0,26.72-.86,1.1.04,2.52-3.11,1.73-16.76-34.58-24.1-77.37,2.02-109.51,5.71-7.03,10.05-13.01,17.86-5.51,14.28,13.73,23.33,42.09,21.16,61.64Z"/>
  <path d="M207.17,191.94c7.91,2.75,27.88,8.2,28.67-4.98,1-16.69-25.82-28.61-40.4-26.57-8.51,1.19-11.2,8.47-18.57-2.18,34.53-28.33,82.97,10.41,87.41,47.67-3.55,10.86-55.88,5.79-64.12-3.86l7.01-10.09Z"/>
  <path d="M78.28,150.68l1.25,14.13c-7.65,5.42-22.79,18.99-11.31,28.11,14.6,11.59,38.27-13.03,49.1-21.38l8.25,10.64c-18.11,18.98-38.79,30.73-65.82,30.16-6.77-.14-24.56-1.04-23.61-9.94,1.97-18.65,24.59-44.92,42.15-51.72Z"/>
  <path d="M213.81,167.13c-5.07,21.55-20.95,40.4-42.13,47.52-4.01,1.35-14.09,4.78-16.87,1.18-3.95-13.53.69-27.8,5.62-40.5,14.85,3.63,1.54,16.24,10.22,22.82,11.54-2.86,20.72-13.65,26.95-23.28,5.47-8.45,1.82-12.05,16.2-7.74Z"/>
  <path d="M162.47,83.61c27.42,3.7,54.67,33.64,54.06,61.59l-13.67-1.38c-1.92-29.25-31.62-51.62-60.18-46.56l-1.42-13.66c6.7.64,14.72-.88,21.22,0Z"/>
  <path d="M117.97,91.83l2.14,13.68c-23.8,16.47-29.15,45.81-17.36,71.57l-10.75,7.82c-18.08-32.57-7.83-76.15,25.97-93.07Z"/>
  <path d="M101.69,160.13c.44-2.48-2-12.69,1.68-11.97,27.86,5.47,47.09,35.93,43.42,63.5-.53,3.97-1.7,6.1-6.04,6.05-4.75-.06-32.24-10.97-32.33-14.32l10.44-8.73c17.62,10.97,16.87-6.36,9.58-18.16-5.69-9.21-16.16-15.08-26.76-16.36Z"/>
  <path d="M162.58,102.89l10.02,4.91c-1.34,11.86-7.46,22.69-13.52,32.64-2.36,3.87-16.93,25.7-19.7,25.2l-8.98-9.99c14.02-15.44,23.64-33.91,32.18-52.76Z"/>
  <path d="M161.1,146.6l27.44,30.13c1.72,3.47-4.58,8.84-7.1,10.81-1.79.31-12.9-11.41-14.88-13.57-2.19-2.39-11.65-13.22-12.33-15.16-1.37-3.91,4.9-8.87,6.87-12.21Z"/>
</svg>