<?xml version="1.0" encoding="UTF-8"?>
<svg id="Layer_3" xmlns="http://www.w3.org/2000/svg" version="1.1" viewBox="0 0 300 300">
  <!-- Generator: Adobe Illustrator 29.1.0, SVG Export Plug-In . SVG Version: 2.1.0 Build 142)  -->
  <path d="M140.59,171.15c-17.23-34.41-55.89-36.7-83.19-19.29-21.84,13.93-26.93,44.91-13,66.75,13.93,21.84,47.17,24.14,63.4,12.26s19.95-34.08,9.5-50.45c-10.45-16.38-35.79-19.15-47.3-8.8-11.51,10.35-12.72,24.19-4.8,35.79s22.98,10.36,30,3.72c7.02-6.65,5.83-12.64,2.35-18.1-3.48-5.46-12.77-7.63-14.95-1.65s8.69,3.42,6.3,9.88-11.39,3.93-14.87-1.53c-3.48-5.46-4.91-11.28,2.27-18.22s24.16-5.69,31.12,5.23,5,25.26-5.92,34.28-36.78,7.69-47.22-8.68c-10.45-16.38-6.95-40.13,9.42-50.57,21.84-13.93,49.55-9.46,63.47,12.38,13.93,21.84,8.76,52.7-13.08,66.63-27.29,17.41-62.16,11.46-79.57-15.84-17.41-27.29-10.72-65.52,16.58-82.93,32.75-20.89,49.32-13.65,87.26-11.3s57.43-32.48,56.13-61.76c-1.14-25.87-25.43-45.78-51.31-44.63-25.87,1.14-44.49,28.78-42.32,48.77,2.18,19.99,19.54,34.31,38.94,33.46,19.41-.86,34.48-21.42,31.27-36.56-3.21-15.14-14.59-23.11-28.59-22.05-14,1.06-20.46,14.72-18.22,24.12s8.04,11.37,14.5,11.08c6.47-.29,12.99-7.25,8.9-12.12-4.09-4.87-7.31,5.82-11.7.52s2.29-11.83,8.76-12.11,12.23,1.39,14.65,11.08c2.42,9.69-7.15,23.77-20.09,24.34s-24.38-8.3-26.72-22.27c-2.35-13.97,11.72-35.7,31.13-36.55,19.41-.86,38.23,14.04,39.09,33.45,1.14,25.87-16.58,47.64-42.46,48.78-25.87,1.14-50.02-18.77-51.16-44.64-1.43-32.34,21.16-59.56,53.5-60.99,32.34-1.43,62.1,25.48,63.53,57.82,1.72,38.81-13.93,50.51-34.26,80.88-20.33,30.37-2.71,67.56,26.02,82.49,22.98,11.95,52.36.86,64.31-22.12s-2.68-52.92-21.08-61.03c-18.4-8.11-39.49-.24-48.45,17-8.96,17.23,1.31,40.57,16.03,45.36,14.72,4.79,27.31-1.08,33.39-13.74,6.08-12.66-2.51-25.08-11.78-27.84-9.27-2.76-13.86,1.27-16.85,7.02-2.99,5.74-.22,14.88,6.04,13.77,6.27-1.11-1.39-9.24,5.4-10.39,6.79-1.16,9.1,7.9,6.11,13.64-2.99,5.74-7.32,9.9-16.92,7.15s-17.01-18.08-11.03-29.57c5.97-11.49,19.38-16.96,32.65-12.01,13.27,4.95,25.05,28,16.09,45.24-8.96,17.23-31.28,26.09-48.51,17.13-22.98-11.95-32.96-38.18-21.02-61.16,11.95-22.98,41.26-33.94,64.24-21.99,28.72,14.93,41,48.11,26.07,76.83-14.93,28.72-51.38,42.04-80.11,27.11-34.47-17.92-34.74-38.61-51.97-73.02Z" fill="none" stroke="#231f20" stroke-miterlimit="10" stroke-width="6"/>
</svg>